<svg width="492" height="127" viewBox="0 0 492 127" fill="none" xmlns="http://www.w3.org/2000/svg">
<rect width="465" height="127" rx="9" fill="#01AB08"/>
<rect width="450" height="114" rx="9" fill="#35BD3A"/>
<path d="M75.43 79.371C72.8507 79.371 70.5187 78.9293 68.434 78.046C66.3847 77.1627 64.7593 75.8907 63.558 74.23C62.3567 72.5693 61.7383 70.6083 61.703 68.347H69.653C69.759 69.8663 70.289 71.0677 71.243 71.951C72.2323 72.8343 73.575 73.276 75.271 73.276C77.0023 73.276 78.3627 72.8697 79.352 72.057C80.3413 71.209 80.836 70.1137 80.836 68.771C80.836 67.6757 80.5003 66.7747 79.829 66.068C79.1577 65.3613 78.3097 64.8137 77.285 64.425C76.2957 64.001 74.9177 63.5417 73.151 63.047C70.7483 62.3403 68.7873 61.6513 67.268 60.98C65.784 60.2733 64.4943 59.231 63.399 57.853C62.339 56.4397 61.809 54.567 61.809 52.235C61.809 50.0443 62.3567 48.1363 63.452 46.511C64.5473 44.8857 66.0843 43.649 68.063 42.801C70.0417 41.9177 72.303 41.476 74.847 41.476C78.663 41.476 81.7547 42.4123 84.122 44.285C86.5247 46.1223 87.8497 48.7017 88.097 52.023H79.935C79.8643 50.751 79.3167 49.7087 78.292 48.896C77.3027 48.048 75.9777 47.624 74.317 47.624C72.8683 47.624 71.7023 47.995 70.819 48.737C69.971 49.479 69.547 50.5567 69.547 51.97C69.547 52.9593 69.865 53.7897 70.501 54.461C71.1723 55.097 71.985 55.627 72.939 56.051C73.9283 56.4397 75.3063 56.899 77.073 57.429C79.4757 58.1357 81.4367 58.8423 82.956 59.549C84.4753 60.2557 85.7827 61.3157 86.878 62.729C87.9733 64.1423 88.521 65.9973 88.521 68.294C88.521 70.2727 88.0087 72.11 86.984 73.806C85.9593 75.502 84.4577 76.8623 82.479 77.887C80.5003 78.8763 78.1507 79.371 75.43 79.371ZM103.593 55.733V69.937C103.593 70.9263 103.823 71.6507 104.282 72.11C104.777 72.534 105.589 72.746 106.72 72.746H110.165V79H105.501C99.2469 79 96.1199 75.9613 96.1199 69.884V55.733H92.6219V49.638H96.1199V42.377H103.593V49.638H110.165V55.733H103.593ZM113.594 64.213C113.594 61.245 114.177 58.6127 115.343 56.316C116.544 54.0193 118.152 52.2527 120.166 51.016C122.215 49.7793 124.494 49.161 127.003 49.161C129.193 49.161 131.101 49.6027 132.727 50.486C134.387 51.3693 135.712 52.4823 136.702 53.825V49.638H144.175V79H136.702V74.707C135.748 76.085 134.423 77.2333 132.727 78.152C131.066 79.0353 129.14 79.477 126.95 79.477C124.476 79.477 122.215 78.841 120.166 77.569C118.152 76.297 116.544 74.5127 115.343 72.216C114.177 69.884 113.594 67.2163 113.594 64.213ZM136.702 64.319C136.702 62.517 136.348 60.98 135.642 59.708C134.935 58.4007 133.981 57.4113 132.78 56.74C131.578 56.0333 130.289 55.68 128.911 55.68C127.533 55.68 126.261 56.0157 125.095 56.687C123.929 57.3583 122.975 58.3477 122.233 59.655C121.526 60.927 121.173 62.4463 121.173 64.213C121.173 65.9797 121.526 67.5343 122.233 68.877C122.975 70.1843 123.929 71.1913 125.095 71.898C126.296 72.6047 127.568 72.958 128.911 72.958C130.289 72.958 131.578 72.6223 132.78 71.951C133.981 71.2443 134.935 70.255 135.642 68.983C136.348 67.6757 136.702 66.121 136.702 64.319ZM158.842 54.196C159.796 52.6413 161.032 51.4223 162.552 50.539C164.106 49.6557 165.873 49.214 167.852 49.214V57.005H165.891C163.559 57.005 161.792 57.5527 160.591 58.648C159.425 59.7433 158.842 61.6513 158.842 64.372V79H151.422V49.638H158.842V54.196ZM181.488 55.733V69.937C181.488 70.9263 181.718 71.6507 182.177 72.11C182.672 72.534 183.485 72.746 184.615 72.746H188.06V79H183.396C177.142 79 174.015 75.9613 174.015 69.884V55.733H170.517V49.638H174.015V42.377H181.488V49.638H188.06V55.733H181.488ZM237.667 79H230.247L213.446 53.613V79H206.026V41.953H213.446L230.247 67.393V41.953H237.667V79ZM258.038 79.477C255.211 79.477 252.667 78.8587 250.406 77.622C248.144 76.35 246.36 74.5657 245.053 72.269C243.781 69.9723 243.145 67.3223 243.145 64.319C243.145 61.3157 243.798 58.6657 245.106 56.369C246.448 54.0723 248.268 52.3057 250.565 51.069C252.861 49.797 255.423 49.161 258.25 49.161C261.076 49.161 263.638 49.797 265.935 51.069C268.231 52.3057 270.033 54.0723 271.341 56.369C272.683 58.6657 273.355 61.3157 273.355 64.319C273.355 67.3223 272.666 69.9723 271.288 72.269C269.945 74.5657 268.108 76.35 265.776 77.622C263.479 78.8587 260.9 79.477 258.038 79.477ZM258.038 73.011C259.38 73.011 260.635 72.693 261.801 72.057C263.002 71.3857 263.956 70.3963 264.663 69.089C265.369 67.7817 265.723 66.1917 265.723 64.319C265.723 61.5277 264.981 59.39 263.497 57.906C262.048 56.3867 260.264 55.627 258.144 55.627C256.024 55.627 254.239 56.3867 252.791 57.906C251.377 59.39 250.671 61.5277 250.671 64.319C250.671 67.1103 251.36 69.2657 252.738 70.785C254.151 72.269 255.918 73.011 258.038 73.011ZM319.502 49.638L310.916 79H302.913L297.56 58.489L292.207 79H284.151L275.512 49.638H283.038L288.232 72.004L293.85 49.638H301.694L307.206 71.951L312.4 49.638H319.502ZM337.205 48.26H346.586L358.14 60.132L346.586 72.004H337.205L348.812 60.132L337.205 48.26ZM367.277 48.26H376.658L388.212 60.132L376.658 72.004H367.277L378.884 60.132L367.277 48.26ZM397.348 48.26H406.729L418.283 60.132L406.729 72.004H397.348L408.955 60.132L397.348 48.26Z" fill="white"/>
</svg>
